<svg width="22" height="21" viewBox="0 0 22 21" fill="none" xmlns="http://www.w3.org/2000/svg">
<path d="M9.84195 4.39037C10.4038 4.39037 10.8592 4.84582 10.8592 5.40764V10.0726L13.6131 12.8265C14.0103 13.2238 14.0103 13.8679 13.6131 14.2651C13.2158 14.6624 12.5717 14.6624 12.1744 14.2651L9.12263 11.2133C9.02121 11.1119 8.94569 10.9944 8.89605 10.869C8.85 10.753 8.82468 10.6264 8.82468 10.494V5.40764C8.82468 4.84582 9.28013 4.39037 9.84195 4.39037Z" fill="#1E1E1E"/>
<path fill-rule="evenodd" clip-rule="evenodd" d="M21.0319 10.494C21.0319 16.1122 16.4774 20.6667 10.8592 20.6667C5.24099 20.6667 0.686523 16.1122 0.686523 10.494C0.686523 4.87576 5.24099 0.321289 10.8592 0.321289C16.4774 0.321289 21.0319 4.87576 21.0319 10.494ZM18.9974 10.494C18.9974 14.9886 15.3538 18.6321 10.8592 18.6321C6.36464 18.6321 2.72106 14.9886 2.72106 10.494C2.72106 5.99941 6.36464 2.35583 10.8592 2.35583C15.3538 2.35583 18.9974 5.99941 18.9974 10.494Z" fill="#1E1E1E"/>
</svg>
