<svg width="24" height="24" viewBox="0 0 24 24" fill="none" xmlns="http://www.w3.org/2000/svg">
<path d="M6 6C6 5.44772 6.44772 5 7 5H17C17.5523 5 18 5.44772 18 6C18 6.55228 17.5523 7 17 7H7C6.44772 7 6 6.55228 6 6Z" fill="white"/>
<path d="M8 12C8 11.4477 8.44772 11 9 11H15C15.5523 11 16 11.4477 16 12C16 12.5523 15.5523 13 15 13H9C8.44772 13 8 12.5523 8 12Z" fill="white"/>
<path d="M11 17C10.4477 17 10 17.4477 10 18C10 18.5523 10.4477 19 11 19H13C13.5523 19 14 18.5523 14 18C14 17.4477 13.5523 17 13 17H11Z" fill="white"/>
</svg>
