<svg width="70" height="70" viewBox="0 0 70 70" fill="none" xmlns="http://www.w3.org/2000/svg">
<path d="M20.3 0H49.7C60.9 0 70 9.1 70 20.3V49.7C70 55.0839 67.8613 60.2473 64.0543 64.0543C60.2473 67.8613 55.0839 70 49.7 70H20.3C9.1 70 0 60.9 0 49.7V20.3C0 14.9161 2.13874 9.75272 5.94573 5.94573C9.75272 2.13874 14.9161 0 20.3 0ZM19.6 7C16.2583 7 13.0534 8.3275 10.6905 10.6905C8.3275 13.0534 7 16.2583 7 19.6V50.4C7 57.365 12.635 63 19.6 63H50.4C53.7417 63 56.9466 61.6725 59.3095 59.3095C61.6725 56.9466 63 53.7417 63 50.4V19.6C63 12.635 57.365 7 50.4 7H19.6ZM53.375 12.25C54.5353 12.25 55.6481 12.7109 56.4686 13.5314C57.2891 14.3519 57.75 15.4647 57.75 16.625C57.75 17.7853 57.2891 18.8981 56.4686 19.7186C55.6481 20.5391 54.5353 21 53.375 21C52.2147 21 51.1019 20.5391 50.2814 19.7186C49.4609 18.8981 49 17.7853 49 16.625C49 15.4647 49.4609 14.3519 50.2814 13.5314C51.1019 12.7109 52.2147 12.25 53.375 12.25ZM35 17.5C39.6413 17.5 44.0925 19.3437 47.3744 22.6256C50.6563 25.9075 52.5 30.3587 52.5 35C52.5 39.6413 50.6563 44.0925 47.3744 47.3744C44.0925 50.6563 39.6413 52.5 35 52.5C30.3587 52.5 25.9075 50.6563 22.6256 47.3744C19.3437 44.0925 17.5 39.6413 17.5 35C17.5 30.3587 19.3437 25.9075 22.6256 22.6256C25.9075 19.3437 30.3587 17.5 35 17.5ZM35 24.5C32.2152 24.5 29.5445 25.6062 27.5754 27.5754C25.6062 29.5445 24.5 32.2152 24.5 35C24.5 37.7848 25.6062 40.4555 27.5754 42.4246C29.5445 44.3938 32.2152 45.5 35 45.5C37.7848 45.5 40.4555 44.3938 42.4246 42.4246C44.3938 40.4555 45.5 37.7848 45.5 35C45.5 32.2152 44.3938 29.5445 42.4246 27.5754C40.4555 25.6062 37.7848 24.5 35 24.5Z" fill="black"/>
</svg>
