<svg width="69" height="70" viewBox="0 0 69 70" fill="none" xmlns="http://www.w3.org/2000/svg">
<path d="M69 8.23529C66.4603 9.67647 63.7228 10.6235 60.8862 11.0765C63.7887 8.89412 66.0316 5.43529 67.087 1.27647C64.3494 3.33529 61.315 4.77647 58.1157 5.6C55.51 2.05882 51.849 0 47.6931 0C39.9422 0 33.6095 7.90588 33.6095 17.6647C33.6095 19.0647 33.7414 20.4235 33.9723 21.7C22.2304 20.9588 11.7749 13.9176 4.81549 3.25294C3.59512 5.84706 2.90249 8.89412 2.90249 12.1059C2.90249 18.2412 5.3762 23.6765 9.2022 26.7647C6.86042 26.7647 4.68356 25.9412 2.77056 24.7059C2.77056 24.7059 2.77056 24.7059 2.77056 24.8294C2.77056 33.3941 7.65201 40.5588 14.1166 42.1647C12.9293 42.5765 11.6759 42.7824 10.3896 42.7824C9.49905 42.7824 8.60851 42.6588 7.75096 42.4529C9.53203 49.4118 14.7103 54.6 20.9441 54.7235C16.1286 59.5 10.0268 62.3 3.36424 62.3C2.24283 62.3 1.12142 62.2176 0 62.0529C6.26673 67.0765 13.7208 70 21.7027 70C47.6931 70 61.9747 43.0706 61.9747 19.7235C61.9747 18.9412 61.9747 18.2 61.9417 17.4176C64.7122 14.9471 67.087 11.8176 69 8.23529Z" fill="black"/>
</svg>
