<svg width="38" height="37" viewBox="0 0 38 37" fill="none" xmlns="http://www.w3.org/2000/svg">
<path d="M19 0.166626C16.5924 0.166626 14.2084 0.640832 11.9841 1.56217C9.75979 2.4835 7.73874 3.83393 6.03633 5.53633C2.59817 8.9745 0.666626 13.6377 0.666626 18.5C0.666626 23.3623 2.59817 28.0254 6.03633 31.4636C7.73874 33.166 9.75979 34.5164 11.9841 35.4378C14.2084 36.3591 16.5924 36.8333 19 36.8333C23.8623 36.8333 28.5254 34.9017 31.9636 31.4636C35.4017 28.0254 37.3333 23.3623 37.3333 18.5C37.3333 16.0924 36.8591 13.7084 35.9378 11.4841C35.0164 9.25979 33.666 7.23874 31.9636 5.53633C30.2612 3.83393 28.2401 2.4835 26.0158 1.56217C23.7915 0.640832 21.4075 0.166626 19 0.166626ZM9.96163 30.0133C10.75 28.3633 15.5533 26.75 19 26.75C22.4466 26.75 27.25 28.3633 28.0383 30.0133C25.545 31.9933 22.41 33.1666 19 33.1666C15.59 33.1666 12.455 31.9933 9.96163 30.0133ZM30.66 27.355C28.0383 24.165 21.6766 23.0833 19 23.0833C16.3233 23.0833 9.96163 24.165 7.33996 27.355C5.46996 24.9166 4.33329 21.8366 4.33329 18.5C4.33329 10.415 10.915 3.83329 19 3.83329C27.085 3.83329 33.6666 10.415 33.6666 18.5C33.6666 21.8366 32.53 24.9166 30.66 27.355ZM19 7.49996C15.4433 7.49996 12.5833 10.36 12.5833 13.9166C12.5833 17.4733 15.4433 20.3333 19 20.3333C22.5566 20.3333 25.4166 17.4733 25.4166 13.9166C25.4166 10.36 22.5566 7.49996 19 7.49996ZM19 16.6666C18.2706 16.6666 17.5711 16.3769 17.0554 15.8612C16.5397 15.3454 16.25 14.646 16.25 13.9166C16.25 13.1873 16.5397 12.4878 17.0554 11.9721C17.5711 11.4564 18.2706 11.1666 19 11.1666C19.7293 11.1666 20.4288 11.4564 20.9445 11.9721C21.4602 12.4878 21.75 13.1873 21.75 13.9166C21.75 14.646 21.4602 15.3454 20.9445 15.8612C20.4288 16.3769 19.7293 16.6666 19 16.6666Z" fill="white"/>
</svg>
